<svg width="394" height="266" viewBox="0 0 394 266" fill="none" xmlns="http://www.w3.org/2000/svg">
<g filter="url(#filter0_i_8_3)">
<path d="M201.429 0.227882C207.615 -0.0177231 214.011 -0.180244 219.979 0.366554L219.978 0.367531C220.897 0.450417 222.164 0.492423 223.837 1.16538L223.847 1.16929C225.713 1.92538 227.136 3.594 228.04 4.79234C229.084 6.1744 230.082 7.831 230.957 9.45249C232.037 11.4518 233.033 13.589 233.775 15.3929L243.534 15.5316H243.56L243.586 15.5326C246.206 15.604 249.317 15.4807 252.484 15.4095C255.3 15.3463 258.366 15.3153 260.629 15.6488C263.706 15.6937 266.389 16.3678 268.65 17.6937C271 19.0719 272.638 21.0022 273.771 23.099C275.93 27.0965 276.383 31.9987 276.646 35.6361L276.828 38.3236C278.559 65.8743 275.672 86.7288 265.789 112.707C255.72 139.177 241.718 167.097 228.556 191.975L228.555 191.974C226.014 196.78 221.578 205.398 216.769 213.554C214.362 217.635 211.824 221.667 209.342 225.096C207.067 228.24 204.657 231.135 202.285 233.05L201.811 233.42C199.516 235.148 197.178 236.363 194.803 236.718C192.25 237.1 189.921 236.442 188.047 234.932C186.317 233.537 185.204 231.606 184.449 229.749C183.678 227.856 183.151 225.722 182.771 223.583C182.013 219.319 181.746 214.476 181.547 210.419C181.446 208.343 181.364 206.495 181.25 204.91C181.133 203.275 180.998 202.193 180.85 201.583L180.738 201.118V200.639L180.756 175.416L171.329 177.656C171.195 178.469 171.082 179.322 170.962 180.246C170.735 182 170.479 184.037 169.955 186.144L169.954 186.147C168.245 193.005 163.729 201.921 157.52 208.327C151.348 214.696 142.402 219.55 132.568 215.111C127.787 212.952 125.37 208.881 124.256 204.817C123.166 200.838 123.214 196.549 123.519 193.114C123.62 191.972 123.82 190.856 124.06 189.79C123.673 190.077 123.296 190.359 122.933 190.634C119.656 193.116 116.78 195.573 114.662 198.223L114.663 198.224C112.397 201.063 110.581 206.093 108.802 212.269C107.243 217.681 105.713 223.994 103.897 228.815L103.53 229.758C101.187 235.584 96.8226 244.156 91.1811 251.394C85.7322 258.385 78.197 265.286 69.3451 265.517L69.3461 265.518C60.8439 265.743 53.3596 258.864 53.1478 250.172C53.0112 244.566 55.2492 238.881 58.4203 233.599C61.6241 228.263 66.0124 222.957 70.7172 218.012C79.5554 208.724 89.8894 200.323 96.5551 194.98C99.309 145.572 75.6937 110.495 51.1557 86.1927C38.728 73.8843 26.143 64.4198 16.6596 57.264C11.9803 53.7332 7.90168 50.6509 5.08925 48.1029C3.69169 46.8367 2.41304 45.5326 1.51015 44.225C0.695033 43.0443 -0.393646 41.0332 0.142965 38.6751V38.6732C0.913676 35.2932 3.47067 33.2837 6.22304 32.7064C8.81801 32.1624 11.6845 32.8371 13.8139 34.641L14.8197 35.4935L15.0492 36.471C15.1652 36.6396 15.3743 36.9078 15.7172 37.2884C16.4398 38.0905 17.5221 39.1375 18.9867 40.4564C21.9152 43.0934 25.9898 46.4805 30.9496 50.6634C40.7958 58.9674 53.793 70.1301 66.602 83.5501C90.2433 108.32 113.931 141.483 115.306 179.319C126.349 170.595 138.453 163.028 149.205 155.098L149.629 154.785L150.12 154.592C153.512 153.264 156.978 152.995 160.256 153.953C163.521 154.908 166.269 156.984 168.414 159.785C168.912 160.434 169.323 161.221 169.588 161.742C169.839 162.233 170.007 162.577 170.19 162.939L179.874 160.169C179.971 154.52 179.793 148.604 179.463 142.936L179.462 142.932C179.435 142.46 179.291 141.566 179.051 140.068C178.834 138.711 178.571 137.034 178.423 135.39C178.281 133.807 178.209 131.93 178.524 130.255C178.803 128.771 179.704 125.917 182.775 124.994L182.777 124.993C185.127 124.288 187.404 124.457 189.421 125.389C191.347 126.279 192.767 127.735 193.787 129.185C195.785 132.026 196.804 135.623 197.18 138.216C198.964 150.504 198.501 163.647 198.108 176.398C197.739 188.368 197.43 200.028 198.848 211.025C200.352 208.604 202.083 205.71 203.835 202.722C208.296 195.114 212.795 187.089 213.939 185.08L216.8 180.035C231.139 154.648 245.816 126.88 255.691 100.139C263.324 79.4759 265.448 58.6332 263.423 36.3265C263.123 33.0323 262.886 31.2614 262.18 30.1244C261.834 29.5674 261.021 28.5366 257.356 28.5365C253.874 28.5365 234.58 28.6311 212.162 28.7455C235.327 34.3989 252.455 59.2811 243.242 86.0814C239.835 95.9921 234.148 102.789 226.919 107.267C219.787 111.685 211.405 113.692 202.783 114.535C194.163 115.379 185.004 115.082 176.213 114.683C167.312 114.279 158.85 113.777 151.181 114.105L151.14 114.107L151.099 114.108H151.088C151.081 114.108 151.07 114.108 151.057 114.109C151.029 114.109 150.988 114.11 150.935 114.111C150.828 114.113 150.669 114.117 150.467 114.121C150.063 114.13 149.481 114.144 148.772 114.16C147.354 114.191 145.425 114.234 143.387 114.279C139.315 114.368 134.792 114.466 133.025 114.499C129.504 114.566 124.923 114.573 120.563 111.784L120.561 111.783C114.728 108.046 112.316 101.101 111.807 95.5326L111.649 93.6947C110.1 74.6482 111.334 53.8706 111.601 34.6214C111.681 28.8963 113.744 23.8976 117.887 20.3959C121.123 17.6608 125.333 16.0875 130.179 15.5609C130.645 13.1862 131.879 10.7576 134.615 9.13316L134.914 8.96616C135.621 8.59708 136.364 8.37351 136.947 8.22691C137.673 8.04414 138.469 7.9051 139.267 7.79624C140.867 7.57805 142.715 7.45013 144.514 7.38902C147.974 7.27151 151.889 7.38058 153.839 7.76987L153.846 7.77085C158.164 8.63997 160.742 11.8414 161.702 15.3539H171.828C173.126 12.5794 174.68 9.18442 176.308 6.60679L176.31 6.60386C176.615 6.12247 177.337 4.86352 178.09 3.8978C178.902 2.85748 180.22 1.48839 182.232 0.857765L182.863 0.660499L183.523 0.676124C189.128 0.809292 195.149 0.477245 201.429 0.227882ZM91.4408 217.336C87.7875 220.771 83.175 225.448 79.1049 230.367C76.5514 233.452 74.2716 236.561 72.5805 239.461C70.9611 242.239 70.0384 244.561 69.7641 246.334L69.7182 246.681C69.5653 248.062 69.7145 248.818 69.8363 249.15C69.8635 249.224 69.8872 249.27 69.9027 249.297C69.992 249.324 70.25 249.379 70.7602 249.316C71.4462 249.231 72.4046 248.955 73.6049 248.368L73.6059 248.367C75.7244 247.331 77.9496 245.244 80.1937 242.104C82.4097 239.003 84.4551 235.142 86.3129 230.937C88.2887 226.465 89.9929 221.739 91.4408 217.336ZM65.7416 246.242C65.7171 246.463 65.6983 246.679 65.684 246.889L65.7426 246.242C65.7608 246.077 65.7824 245.912 65.808 245.744L65.7416 246.242ZM100.166 227.371C100.052 227.676 99.9351 227.974 99.8178 228.266C99.6779 228.614 99.5311 228.972 99.3764 229.34C99.5314 228.972 99.6789 228.614 99.8187 228.266C99.9361 227.974 100.052 227.676 100.166 227.371ZM102.122 221.334H102.123H102.122ZM197.543 219.773C197.508 219.793 197.476 219.808 197.447 219.815V219.816C197.476 219.809 197.508 219.795 197.544 219.774L197.543 219.773ZM197.637 219.708C197.656 219.694 197.676 219.677 197.697 219.66C197.676 219.677 197.656 219.694 197.637 219.708ZM197.77 219.595C197.785 219.582 197.8 219.568 197.815 219.553C197.8 219.568 197.785 219.582 197.77 219.595ZM388.422 136.798C388.723 136.709 389.348 136.552 390.126 136.63C391.016 136.72 392.262 137.156 393.113 138.388L393.155 138.448L393.194 138.509C394.038 139.832 393.918 141.17 393.817 141.775C393.702 142.458 393.464 143.055 393.267 143.485C392.863 144.364 392.266 145.306 391.629 146.216C390.326 148.078 388.407 150.434 386.143 153.05C381.589 158.313 375.325 164.986 368.972 171.573C356.254 184.758 342.984 197.792 341.811 198.927L341.808 198.93C339.076 201.569 334.477 205.381 329.668 208.685C327.257 210.342 324.729 211.915 322.306 213.16C319.94 214.377 317.422 215.414 315.082 215.785H315.08C311.485 216.354 308.24 216.226 305.481 215.212C302.622 214.161 300.512 212.236 299.236 209.719C296.84 204.992 297.702 198.909 299.607 193.558C300.508 191.028 302.059 188.399 303.347 186.196C304.742 183.81 305.885 181.833 306.525 180.083C307.177 178.299 306.951 177.689 306.865 177.53C306.797 177.405 306.471 176.929 305.256 176.394C297.779 187.173 289.58 198.953 277.623 206.756V206.757C274.755 208.628 270.82 210.78 266.721 212.449C262.72 214.078 258.109 215.437 254.043 215.295H254.041C250.048 215.154 246.589 214.182 243.759 212.344C240.91 210.493 238.941 207.92 237.704 204.985C235.299 199.276 235.64 192.187 237.177 185.499C238.741 178.698 241.68 171.71 245.176 165.816C248.615 160.019 252.864 154.826 257.283 152.081C266.942 146.082 276.726 147.316 281.818 154.235C286.671 160.83 285.726 170.63 278.562 178.835L278.216 179.225C271.54 186.617 260.975 191.715 252.173 194.953C252.031 196.254 252.118 197.44 252.414 198.328C252.618 198.938 252.887 199.316 253.162 199.558C253.422 199.785 253.865 200.05 254.699 200.168C257.216 200.525 260.307 199.879 263.877 198.152C267.415 196.44 271.117 193.812 274.704 190.673C281.904 184.372 288.138 176.459 291.159 171.165C292.618 168.607 293.045 167.526 293.285 166.559C293.601 165.277 293.621 164.287 294.114 161.018V161.017C294.617 157.681 296.237 155.017 298.676 153.423C301.056 151.868 303.897 151.551 306.402 152.281C308.927 153.017 311.198 154.849 312.308 157.616C312.969 159.264 313.145 161.061 312.88 162.921C315.366 164.107 317.935 165.598 319.911 167.63C321.423 169.187 322.652 171.114 323.253 173.493C323.852 175.86 323.765 178.415 323.055 181.136L323.054 181.135C322.813 182.06 322.34 183.084 321.914 183.942C321.45 184.878 320.87 185.954 320.256 187.073C319 189.361 317.565 191.904 316.286 194.439C314.987 197.013 314.007 199.279 313.579 200.962C313.57 200.997 313.562 201.032 313.554 201.065C313.877 200.986 314.287 200.862 314.795 200.665C316.74 199.913 319.137 198.49 321.722 196.679C324.266 194.897 326.805 192.874 329.02 191.054C331.132 189.319 333.14 187.603 334.329 186.701C334.206 186.793 334.285 186.736 334.819 186.229C335.252 185.817 335.857 185.235 336.613 184.503C338.123 183.041 340.206 181.01 342.679 178.602C347.619 173.79 354.096 167.485 360.57 161.272C367.037 155.065 373.532 148.92 378.504 144.435C380.979 142.202 383.136 140.327 384.745 139.054C385.526 138.436 386.301 137.861 386.974 137.458C387.272 137.28 387.797 136.983 388.422 136.798ZM200.389 216.056L201.037 215.057C201.131 214.91 201.224 214.76 201.321 214.608C200.996 215.12 200.685 215.605 200.389 216.056ZM194.861 211.381C194.981 212.326 195.112 213.266 195.258 214.202C195.287 214.387 195.317 214.644 195.352 214.949L195.259 214.202C195.113 213.266 194.981 212.326 194.861 211.381ZM104.908 211.34C104.734 211.944 104.562 212.55 104.393 213.158C104.562 212.55 104.734 211.944 104.908 211.34ZM316.965 211.159C316.818 211.211 316.673 211.263 316.529 211.311L316.9 211.184C316.922 211.176 316.943 211.166 316.965 211.159ZM194.683 209.909C194.731 210.335 194.783 210.76 194.836 211.184C194.783 210.76 194.731 210.335 194.683 209.909ZM317.339 211.02C317.571 210.932 317.808 210.84 318.046 210.741C317.808 210.84 317.572 210.932 317.339 211.02ZM105.277 210.067C105.221 210.256 105.167 210.445 105.112 210.635C105.167 210.445 105.221 210.256 105.277 210.067ZM194.539 208.57C194.577 208.94 194.616 209.31 194.658 209.679C194.616 209.31 194.577 208.94 194.539 208.57ZM105.621 208.919C105.623 208.913 105.625 208.906 105.627 208.9C105.741 208.526 105.856 208.155 105.972 207.785V207.785C105.854 208.16 105.736 208.539 105.621 208.919ZM194.412 207.248C194.438 207.538 194.466 207.827 194.495 208.116C194.466 207.827 194.438 207.538 194.412 207.248ZM129.585 207.302C129.615 207.352 129.645 207.401 129.675 207.451C129.645 207.401 129.615 207.352 129.585 207.302ZM326.53 205.98C325.946 206.37 325.362 206.752 324.778 207.121L325.655 206.559C325.947 206.369 326.238 206.175 326.53 205.98ZM194.283 205.726C194.309 206.056 194.336 206.386 194.365 206.715C194.336 206.386 194.309 206.056 194.283 205.726ZM194.171 204.198C194.199 204.613 194.228 205.028 194.26 205.443C194.228 205.028 194.199 204.613 194.171 204.198ZM128.113 203.759C128.148 203.89 128.189 204.019 128.228 204.148C128.178 203.981 128.129 203.813 128.083 203.644L128.113 203.759ZM253.317 203.972C253.579 204.036 253.852 204.089 254.137 204.129C254.18 204.135 254.223 204.139 254.266 204.145C254.223 204.139 254.181 204.134 254.138 204.128C253.853 204.088 253.579 204.036 253.317 203.972ZM194.142 203.776C194.145 203.817 194.148 203.858 194.151 203.899C194.123 203.466 194.096 203.033 194.072 202.6L194.142 203.776ZM148.859 174.101C148.229 174.954 147.542 175.99 146.827 177.204C145.161 180.031 143.539 183.469 142.264 186.961C140.981 190.476 140.11 193.883 139.842 196.669C139.551 199.693 140.061 201.016 140.344 201.366C140.389 201.422 140.505 201.654 141.414 201.541C142.41 201.417 143.655 200.909 144.731 200.251C147.144 198.772 149.464 195.96 151.441 192.348C153.384 188.796 154.794 184.838 155.572 181.55L155.573 181.547C155.639 181.268 155.718 180.966 155.79 180.694C155.867 180.406 155.941 180.13 156.014 179.84C156.122 179.413 156.215 179.011 156.285 178.64C156.142 178.603 155.988 178.563 155.822 178.519C154.75 178.235 153.393 177.825 151.883 176.905C150.99 176.361 150.195 175.552 149.692 175.018C149.416 174.725 149.132 174.41 148.859 174.101ZM193.828 195.609C193.837 196.209 193.85 196.808 193.866 197.407C193.851 196.808 193.837 196.209 193.828 195.609ZM111.537 195.729C111.448 195.84 111.361 195.953 111.274 196.069C111.361 195.953 111.449 195.84 111.537 195.729C111.69 195.538 111.844 195.349 112.002 195.161L111.537 195.729ZM127.503 193.467C127.443 194.152 127.394 194.859 127.364 195.578L127.4 194.864C127.428 194.39 127.463 193.924 127.503 193.468V193.467ZM193.799 193.104C193.803 193.867 193.812 194.628 193.824 195.389C193.8 193.834 193.793 192.274 193.799 190.71V193.104ZM114.146 192.848C114.09 192.904 114.034 192.96 113.978 193.016C114.034 192.96 114.09 192.904 114.146 192.848ZM127.589 192.702C127.58 192.772 127.57 192.842 127.562 192.912C127.57 192.842 127.58 192.772 127.589 192.702ZM114.565 192.438C114.498 192.503 114.431 192.568 114.365 192.633C114.612 192.392 114.863 192.152 115.119 191.914L114.565 192.438ZM128.104 190.055C128.042 190.307 127.983 190.56 127.927 190.813C127.983 190.56 128.042 190.307 128.104 190.055ZM138.256 186.285C137.93 187.213 137.628 188.142 137.355 189.062L137.356 189.061C137.424 188.831 137.494 188.6 137.566 188.369C137.853 187.446 138.168 186.517 138.506 185.59L138.256 186.285ZM139.03 184.203C138.94 184.434 138.851 184.665 138.764 184.896L139.031 184.203C139.121 183.973 139.212 183.743 139.304 183.514L139.03 184.203ZM194.256 171.463C194.198 173.465 194.135 175.471 194.074 177.479C194.135 175.472 194.198 173.466 194.256 171.464V171.463ZM251.686 179.667C251.651 179.755 251.589 179.898 251.51 180.083L251.687 179.667C251.771 179.458 251.859 179.241 251.954 179.018L251.686 179.667ZM291.394 178.146C291.639 177.803 291.877 177.465 292.108 177.13L292.11 177.126C291.878 177.462 291.639 177.802 291.394 178.146ZM267.657 165.609C267.33 165.688 266.983 165.814 266.61 165.993C265.281 166.628 263.786 167.866 262.241 169.653C260.328 171.864 258.631 174.569 257.325 177.038C258.049 176.583 258.585 176.238 258.798 176.086C261.119 174.43 263.922 172.051 265.792 169.489C266.908 167.961 267.478 166.681 267.657 165.609ZM264.666 176.525C264.833 176.377 265 176.228 265.166 176.076C265 176.228 264.833 176.377 264.666 176.525ZM253.743 175.256C253.6 175.528 253.461 175.797 253.328 176.062L253.744 175.256C253.886 174.985 254.033 174.71 254.185 174.434L253.743 175.256ZM133.636 170.896V170.897V170.896ZM165.821 163.167C166.138 163.762 166.475 164.474 166.827 165.148C166.698 164.901 166.571 164.65 166.447 164.401C166.231 163.968 166.022 163.544 165.821 163.166V163.167ZM194.427 164.282C194.441 163.433 194.451 162.587 194.458 161.742C194.451 162.587 194.441 163.433 194.427 164.282ZM164.912 161.804C165.023 161.939 165.132 162.077 165.24 162.218V162.217C165.132 162.077 165.023 161.939 164.912 161.804ZM266.806 161.702C266.691 161.728 266.577 161.757 266.462 161.788C266.577 161.757 266.692 161.728 266.807 161.702H266.806ZM194.464 160.552C194.466 160.211 194.47 159.871 194.47 159.531C194.47 159.402 194.469 159.274 194.469 159.146C194.469 159.614 194.466 160.083 194.464 160.552ZM298.343 160.361C298.332 160.399 298.323 160.437 298.312 160.476C298.329 160.414 298.346 160.352 298.365 160.291L298.343 160.361ZM194.467 158.241C194.466 158.059 194.465 157.877 194.464 157.696C194.465 157.877 194.466 158.059 194.467 158.241ZM194.399 153.65C194.429 154.798 194.449 155.951 194.459 157.108C194.449 155.951 194.43 154.798 194.4 153.65H194.399ZM300.613 156.946C300.543 156.997 300.474 157.052 300.406 157.108C300.48 157.047 300.555 156.989 300.631 156.933L300.613 156.946ZM94.5834 146.756C94.7896 147.403 94.9908 148.054 95.1879 148.708L94.8891 147.729C94.7882 147.403 94.6865 147.079 94.5834 146.755V146.756ZM194.185 148.548C194.172 148.332 194.158 148.116 194.145 147.9C194.159 148.116 194.172 148.332 194.185 148.548ZM193.977 145.559C194.022 146.113 194.062 146.668 194.1 147.225C194.088 147.051 194.078 146.876 194.066 146.702C194.038 146.321 194.009 145.939 193.978 145.559H193.977ZM92.9545 141.964L92.6098 141.021L92.5297 140.808C92.6729 141.192 92.8147 141.577 92.9545 141.964ZM389.866 140.765C389.864 140.76 389.864 140.754 389.863 140.748C389.861 140.743 389.857 140.738 389.855 140.733C389.859 140.743 389.862 140.754 389.866 140.765ZM245.478 134.217H245.479C245.904 133.326 246.326 132.434 246.745 131.541C246.326 132.434 245.903 133.326 245.478 134.217ZM246.918 131.172C247.402 130.142 247.882 129.112 248.357 128.08C247.882 129.112 247.402 130.142 246.918 131.172ZM189.915 130.718C190.02 130.839 190.123 130.964 190.223 131.092L189.916 130.718C189.811 130.597 189.703 130.48 189.593 130.367L189.915 130.718ZM249.238 126.154C249.4 125.798 249.56 125.441 249.721 125.085C249.56 125.441 249.4 125.798 249.238 126.154ZM250.093 124.257C250.202 124.015 250.311 123.774 250.419 123.532C250.311 123.774 250.202 124.015 250.093 124.257ZM250.916 122.413C251.051 122.11 251.185 121.806 251.319 121.502C251.185 121.806 251.051 122.11 250.916 122.413ZM251.897 120.187C251.97 120.019 252.043 119.852 252.116 119.684C252.043 119.852 251.97 120.019 251.897 120.187ZM255.07 112.707L255.203 112.388C255.251 112.271 255.297 112.153 255.345 112.036C255.254 112.26 255.162 112.484 255.07 112.707ZM152.338 110.06C151.893 110.074 151.45 110.09 151.009 110.109C150.954 110.11 143.899 110.263 138.444 110.381C143.921 110.263 151.01 110.109 151.01 110.109C151.45 110.09 151.893 110.074 152.338 110.06ZM155.529 110.002C155.401 110.003 155.273 110.005 155.146 110.006C155.325 110.005 155.504 110.002 155.683 110.001C155.632 110.002 155.58 110.002 155.529 110.002ZM256.246 109.814C256.34 109.582 256.431 109.349 256.524 109.118C256.431 109.349 256.34 109.582 256.246 109.814ZM257.171 107.479C257.286 107.188 257.401 106.898 257.514 106.607C257.401 106.898 257.286 107.188 257.171 107.479ZM125.68 104.282C125.799 104.386 125.917 104.484 126.037 104.574L125.746 104.34C125.723 104.321 125.702 104.301 125.68 104.282ZM258.299 104.568C258.405 104.292 258.509 104.016 258.614 103.74C258.509 104.016 258.405 104.292 258.299 104.568ZM125.399 104.022C125.43 104.053 125.462 104.083 125.494 104.113C125.462 104.083 125.43 104.053 125.399 104.022ZM125.122 103.74C125.159 103.778 125.195 103.816 125.232 103.854C125.195 103.816 125.159 103.778 125.122 103.74ZM132.691 29.1634H132.669C128.715 29.1634 127.088 30.2935 126.319 31.2318C125.422 32.3263 124.916 34.0924 124.916 36.6361C124.916 42.8019 123.214 74.1053 124.8 92.9886L124.964 94.7757V94.7767C124.982 94.9593 125.11 95.5586 125.465 96.4964C125.798 97.3749 126.252 98.3456 126.771 99.2289C127.305 100.138 127.817 100.802 128.218 101.186C128.252 101.218 128.283 101.245 128.311 101.269H170.536C152.667 81.8907 154.888 49.2336 179.212 34.2855L180.045 33.7845C183.96 31.4821 187.947 29.8597 191.923 28.848C191.827 28.8485 191.73 28.8494 191.633 28.85C176.615 28.9283 161.879 29.006 150.898 29.0648C145.408 29.0942 140.855 29.1189 137.676 29.1361C136.087 29.1447 134.841 29.151 133.992 29.1556C133.567 29.1579 133.242 29.1603 133.023 29.1615C132.914 29.1621 132.83 29.1622 132.775 29.1625C132.747 29.1626 132.726 29.1624 132.712 29.1625C132.706 29.1625 132.699 29.1634 132.696 29.1634C132.694 29.1634 132.693 29.1634 132.692 29.1634C132.691 29.1627 132.691 29.1067 132.669 25.1634L132.691 29.1634ZM202.064 44.471C187.383 44.4711 175.481 56.3729 175.481 71.0541L175.49 71.7396C175.848 85.8756 187.241 97.2691 201.377 97.6273L202.064 97.6361C216.515 97.6359 228.273 86.1035 228.637 71.7396L228.646 71.0541C228.646 56.6022 217.114 44.8436 202.749 44.4798L202.064 44.471ZM115.633 93.3568C115.666 93.7583 115.702 94.1589 115.738 94.5589C115.694 94.0575 115.65 93.5549 115.61 93.0511L115.633 93.3568ZM262.289 92.9886C262.329 92.8548 262.369 92.7211 262.409 92.5873C262.369 92.7211 262.329 92.8548 262.289 92.9886ZM262.773 91.3314C262.829 91.1325 262.886 90.9337 262.942 90.7347C262.886 90.9337 262.83 91.1325 262.773 91.3314ZM263.332 89.3119C263.354 89.2303 263.375 89.1484 263.397 89.0667C263.375 89.1484 263.354 89.2303 263.332 89.3119ZM264.533 84.4974C264.378 85.1681 264.219 85.8384 264.054 86.5082L264.298 85.5033C264.458 84.8329 264.612 84.1619 264.761 83.4906L264.533 84.4974ZM4.00429 39.8197C3.99842 39.9072 3.99922 39.9968 4.00625 40.0882C4.0203 40.271 4.06011 40.4617 4.12441 40.6605L4.08144 40.513C4.0138 40.2592 3.98747 40.0191 4.00625 39.7923C4.00548 39.8014 4.00491 39.8105 4.00429 39.8197ZM4.01797 39.6898C4.01613 39.7021 4.01562 39.7146 4.01406 39.7269C4.01625 39.7089 4.01813 39.691 4.02089 39.6732L4.01797 39.6898ZM272.656 35.9251C272.708 36.6547 272.757 37.3793 272.803 38.099C272.757 37.3793 272.709 36.6546 272.657 35.9251C272.625 35.4943 272.591 35.0589 272.553 34.6205C272.591 35.0588 272.625 35.4944 272.656 35.9251ZM11.2279 37.6937C11.2406 37.7473 11.2587 37.8022 11.2787 37.8597C11.2588 37.8023 11.2415 37.7472 11.2289 37.6937C11.1826 37.6544 11.134 37.6178 11.0863 37.5804C11.1338 37.6176 11.1817 37.6546 11.2279 37.6937ZM271.989 30.2484C272.078 30.7171 272.155 31.1903 272.224 31.6654H272.225C272.191 31.4278 272.154 31.1907 272.115 30.9544C272.076 30.7181 272.033 30.4828 271.989 30.2484ZM116.467 29.3568C116.456 29.389 116.448 29.4221 116.437 29.4544C116.473 29.3451 116.509 29.236 116.547 29.1283C116.52 29.2041 116.493 29.2802 116.467 29.3568ZM116.887 28.2699C116.785 28.5053 116.688 28.745 116.598 28.9886C116.581 29.035 116.564 29.0816 116.547 29.1283C116.652 28.8362 116.765 28.5501 116.887 28.2699ZM124.55 27.4085C124.406 27.5198 124.268 27.6343 124.134 27.7523L124.338 27.5785C124.408 27.521 124.478 27.4643 124.55 27.4085ZM132.668 25.1634C132.52 25.1634 132.374 25.1645 132.229 25.1673C132.374 25.1645 132.521 25.1634 132.669 25.1634C132.683 25.1634 132.953 25.1613 133.455 25.1585C132.939 25.1613 132.668 25.1634 132.668 25.1634ZM257.356 24.5365C254.222 24.5365 238.359 24.6123 218.94 24.7103C238.359 24.6123 254.222 24.5365 257.356 24.5365ZM123.815 21.3324C123.69 21.3909 123.565 21.4501 123.443 21.5111H123.444C123.609 21.4289 123.777 21.3495 123.948 21.2718C123.903 21.2921 123.859 21.3118 123.815 21.3324ZM124.195 21.1605C124.149 21.1807 124.103 21.2015 124.057 21.222C124.23 21.1446 124.405 21.0692 124.583 20.9964L124.195 21.1605ZM126.216 20.4154C126.075 20.4586 125.935 20.5033 125.796 20.5492L126.217 20.4154C126.358 20.3721 126.501 20.3301 126.645 20.2894L126.216 20.4154ZM128.905 19.7767C128.837 19.7886 128.769 19.8014 128.702 19.8138C128.925 19.7727 129.152 19.7342 129.381 19.6986H129.38C129.22 19.7234 129.062 19.7492 128.905 19.7767ZM230.974 19.3539H230.975C230.938 19.231 230.894 19.0992 230.847 18.9584C230.894 19.0991 230.937 19.2311 230.974 19.3539ZM230.831 18.9105C230.805 18.8315 230.778 18.7495 230.748 18.6654C230.736 18.6308 230.723 18.5963 230.71 18.5609C230.754 18.6824 230.794 18.799 230.831 18.9105ZM230.472 17.9164C230.441 17.8345 230.408 17.7512 230.375 17.6664C230.408 17.7512 230.441 17.8345 230.472 17.9164ZM230.151 17.1039C230.125 17.0397 230.101 16.9739 230.074 16.9085C230.061 16.8766 230.046 16.8451 230.033 16.8128C230.073 16.911 230.112 17.0083 230.151 17.1039ZM229.673 15.9662C229.662 15.9393 229.651 15.9121 229.639 15.8851C229.618 15.837 229.596 15.7891 229.575 15.7406C229.608 15.8163 229.641 15.8914 229.673 15.9662ZM152.663 11.6263C152.613 11.6187 152.56 11.6112 152.506 11.6039C152.56 11.6112 152.613 11.6187 152.663 11.6263ZM152.016 11.5443C152.029 11.5457 152.043 11.5468 152.056 11.5482C152.049 11.5474 152.042 11.547 152.035 11.5462C152.028 11.5456 152.022 11.5449 152.016 11.5443ZM151.494 11.4974C151.284 11.48 151.064 11.4641 150.833 11.4496C151.064 11.4641 151.284 11.48 151.494 11.4974ZM150.564 11.433C150.335 11.4201 150.098 11.4089 149.853 11.3988C150.098 11.4089 150.335 11.42 150.564 11.433Z" fill="url(#paint0_linear_8_3)"/>
</g>
<defs>
<filter id="filter0_i_8_3" x="0" y="0" width="393.888" height="272.523" filterUnits="userSpaceOnUse" color-interpolation-filters="sRGB">
<feFlood flood-opacity="0" result="BackgroundImageFix"/>
<feBlend mode="normal" in="SourceGraphic" in2="BackgroundImageFix" result="shape"/>
<feColorMatrix in="SourceAlpha" type="matrix" values="0 0 0 0 0 0 0 0 0 0 0 0 0 0 0 0 0 0 127 0" result="hardAlpha"/>
<feOffset dy="7"/>
<feGaussianBlur stdDeviation="8.15"/>
<feComposite in2="hardAlpha" operator="arithmetic" k2="-1" k3="1"/>
<feColorMatrix type="matrix" values="0 0 0 0 0 0 0 0 0 0 0 0 0 0 0 0 0 0 0.25 0"/>
<feBlend mode="normal" in2="shape" result="effect1_innerShadow_8_3"/>
</filter>
<linearGradient id="paint0_linear_8_3" x1="296.46" y1="-4.53729" x2="-23.374" y2="304.585" gradientUnits="userSpaceOnUse">
<stop stop-color="#717171"/>
<stop offset="1"/>
</linearGradient>
</defs>
</svg>
